HIERARCHY
ROOT Hips
{
	OFFSET -3.958830 18.904000 13.208200
	CHANNELS 6 Xposition Yposition Zposition Zrotation Yrotation Xrotation 
	JOINT LHipJoint
	{
		OFFSET 0.000000 0.000000 0.000000
		CHANNELS 3 Zrotation Yrotation Xrotation
		JOINT LeftUpLeg
		{
			OFFSET 1.800000 -1.400000 0.085000
			CHANNELS 3 Zrotation Yrotation Xrotation
			JOINT LeftLeg
			{
				OFFSET 2.215000 -6.000000 0.000000
				CHANNELS 3 Zrotation Yrotation Xrotation
				JOINT LeftFoot
				{
					OFFSET 2.500000 -6.900000 0.000000
					CHANNELS 3 Zrotation Yrotation Xrotation
					JOINT LeftToeBase
					{
						OFFSET 0.200000 -0.500000 1.950000
						CHANNELS 3 Zrotation Yrotation Xrotation
						End Site
						{
							OFFSET 0.000000 0.000000 0.000000
						}
					}
				}
			}
		}
	}
	JOINT RHipJoint
	{
		OFFSET 0.000000 0.000000 0.000000
		CHANNELS 3 Zrotation Yrotation Xrotation
		JOINT RightUpLeg
		{
			OFFSET -1.800000 -1.400000 0.085000
			CHANNELS 3 Zrotation Yrotation Xrotation
			JOINT RightLeg
			{
				OFFSET -2.215000 -6.000000 0.000000
				CHANNELS 3 Zrotation Yrotation Xrotation
				JOINT RightFoot
				{
					OFFSET -2.500000 -6.900000 0.000000
					CHANNELS 3 Zrotation Yrotation Xrotation
					JOINT RightToeBase
					{
						OFFSET -0.200000 -0.500000 1.950000
						CHANNELS 3 Zrotation Yrotation Xrotation
						End Site
						{
							OFFSET 0.000000 0.000000 0.000000
						}
					}
				}
			}
		}
	}
	JOINT LowerBack
	{
		OFFSET 0.000000 0.000000 0.000000
		CHANNELS 3 Zrotation Yrotation Xrotation
		JOINT Spine
		{
			OFFSET -0.087000 1.940000 -0.288900
			CHANNELS 3 Zrotation Yrotation Xrotation
			JOINT Spine1
			{
				OFFSET 0.000000 1.950000 0.060000
				CHANNELS 3 Zrotation Yrotation Xrotation
				JOINT Neck
				{
					OFFSET 0.000000 0.000000 0.000000
					CHANNELS 3 Zrotation Yrotation Xrotation
					JOINT Neck1
					{
						OFFSET 0.000000 1.600000 0.340000
						CHANNELS 3 Zrotation Yrotation Xrotation
						JOINT Head
						{
							OFFSET 0.000000 1.667000 -0.240000
							CHANNELS 3 Zrotation Yrotation Xrotation
							End Site
							{
								OFFSET 0.000000 0.000000 0.000000
							}
						}
					}
				}
				JOINT LeftShoulder
				{
					OFFSET 0.000000 0.000000 0.000000
					CHANNELS 3 Zrotation Yrotation Xrotation
					JOINT LeftArm
					{
						OFFSET 2.700000 1.550000 -0.730000
						CHANNELS 3 Zrotation Yrotation Xrotation
						JOINT LeftForeArm
						{
							OFFSET 5.450000 0.000000 0.000000
							CHANNELS 3 Zrotation Yrotation Xrotation
							JOINT LeftHand
							{
								OFFSET 3.450000 0.000000 0.000000
								CHANNELS 3 Zrotation Yrotation Xrotation
								JOINT LeftHandIndex1
								{
									OFFSET 0.750000 0.000000 0.000000
									CHANNELS 3 Zrotation Yrotation Xrotation
									End Site
									{
										OFFSET 0.000000 0.000000 0.000000
									}
								}
							}
						}
					}
				}
				JOINT RightShoulder
				{
					OFFSET 0.000000 0.000000 0.000000
					CHANNELS 3 Zrotation Yrotation Xrotation
					JOINT RightArm
					{
						OFFSET -2.700000 1.550000 -0.730000
						CHANNELS 3 Zrotation Yrotation Xrotation
						JOINT RightForeArm
						{
							OFFSET -5.450000 0.000000 0.000000
							CHANNELS 3 Zrotation Yrotation Xrotation
							JOINT RightHand
							{
								OFFSET -3.450000 0.000000 0.000000
								CHANNELS 3 Zrotation Yrotation Xrotation
								JOINT RightHandIndex1
								{
									OFFSET -0.750000 0.000000 0.000000
									CHANNELS 3 Zrotation Yrotation Xrotation
									End Site
									{
										OFFSET 0.000000 0.000000 0.000000
									}
								}
							}
						}
					}
				}
			}
		}
	}
}
MOTION
Frames: 10
Frame Time: 0.016667
-4.205160 16.631010 -1.158920 -105.282234 -83.749059 99.646247 -14.897439 13.443458 3.632925 17.536912 0.871796 -33.937949 1.472543 5.612851 18.583165 -0.300844 4.043686 3.079763 1.067660 0.816830 0.668810 18.550709 -10.871597 2.097606 -10.907150 8.312642 -17.186293 -8.991277 -1.794389 49.097347 -1.031394 -6.858690 2.048787 0.402670 0.312050 0.417310 -5.064994 0.991772 -7.306338 13.964395 2.685688 14.572068 -14.284496 5.507223 1.897850 -0.461116 -11.424827 -8.123654 -29.512798 32.398406 35.164174 11.280130 16.087900 -0.694530 -9.983494 13.217100 1.178431 -34.454564 18.911089 -7.623886 3.222059 -4.276308 -1.193215 -3.678630 3.119812 0.433800 0.092450 0.212130 0.608500 8.458672 -4.535269 2.788368 14.681758 -18.185953 -8.369757 -2.120930 44.431766 -0.701607 2.084085 -2.151544 0.076900 0.098470 -0.579150 0.057990 
-4.237610 16.470990 -1.104940 -152.401923 -81.435940 148.030092 -15.833649 12.979079 3.578243 18.991401 1.232851 -34.318662 0.335350 6.587351 20.812270 -0.274757 4.594099 2.925146 1.015140 0.758110 0.573580 17.703531 -10.987947 2.020481 -15.308955 9.004870 -20.867677 -10.408444 -1.487206 50.656233 -0.979391 -7.199260 1.937750 0.416300 0.442630 0.405120 -6.120247 1.047486 -7.355845 14.225028 3.204361 12.694684 -14.193583 5.668494 1.322880 -1.045049 -11.928204 -7.130855 -29.030561 33.033507 32.762547 11.796400 16.316840 2.358520 -9.345052 15.732477 0.638847 -34.200824 23.025657 -8.256921 4.410777 -1.683379 -1.048956 -3.819769 3.102034 0.349990 0.188390 0.088140 0.646790 8.767128 -6.166563 2.953695 12.771517 -16.588916 -5.346878 -0.222167 27.678656 -0.535789 2.197292 -2.023649 0.020580 0.110840 -0.551800 0.082210 
-4.281190 16.326250 -1.065370 -167.950079 -76.644516 164.319994 -15.886236 12.453381 3.316581 19.984433 2.002884 -33.811338 0.279841 7.737862 24.583572 -0.273826 5.263905 2.653927 1.034290 0.778240 0.604590 17.734221 -11.301728 2.005465 -19.440967 9.269562 -23.583964 -11.141818 -1.398031 49.870599 -0.914144 -7.192378 1.868921 0.467170 0.446430 0.441500 -6.529686 1.342751 -7.296342 15.153505 4.064335 10.731546 -14.420579 6.522943 2.622584 -1.478275 -12.227075 -6.182157 -28.415516 33.126964 32.134750 9.761990 17.409990 1.798680 -9.003899 17.057762 0.139568 -32.994677 25.078293 -8.033001 5.129006 0.619307 -0.942133 -3.944843 3.088877 0.307670 0.242800 0.056390 0.618990 8.928101 -6.889090 3.167592 10.177385 -13.228352 -2.371100 1.031442 12.679285 -1.036218 2.340443 -1.864985 0.015490 0.079410 -0.533990 0.057480 
-4.287990 16.192250 -1.055580 -173.241258 -73.909682 170.012163 -15.803748 12.184331 3.225785 20.311030 2.287977 -34.102197 0.462822 8.525635 27.563358 -0.241754 5.764105 2.447406 1.116970 0.876200 0.680650 17.880624 -11.386672 1.945351 -23.222144 8.651041 -25.084478 -10.246003 -2.436222 48.752625 -0.896380 -7.130640 1.828093 0.527500 0.424470 0.511240 -6.562324 1.431524 -7.250023 15.164133 4.119371 9.525233 -14.754548 6.584936 4.343108 -1.768654 -12.063058 -5.721675 -27.382330 33.507351 32.309923 8.590350 18.581520 0.076080 -9.124862 17.158568 0.134998 -30.442536 25.948325 -7.245298 4.846858 2.266851 -0.960125 -3.995031 3.103159 0.291070 0.270330 0.100910 0.625620 9.559934 -7.232298 3.120689 10.790894 -13.270206 -2.017684 -0.243732 9.631333 -1.284045 2.365364 -1.854157 0.061970 0.060420 -0.560910 0.053480 
-4.260250 16.080110 -1.052770 -175.527198 -72.409903 172.781934 -15.752373 12.119961 3.354089 20.316709 2.224830 -35.690757 1.544051 8.966999 30.647422 -0.168892 6.216116 2.284671 1.005210 0.718960 0.672310 17.962979 -11.271271 1.933694 -25.906382 7.670212 -25.889008 -8.231030 -4.074986 47.316756 -0.792282 -7.015615 1.846911 0.426120 0.395620 0.508020 -6.211586 1.017476 -7.383837 14.112214 3.899689 10.206677 -14.294109 6.297742 4.711044 -0.948743 -11.623844 -6.280250 -26.191005 31.966133 32.960896 5.663280 19.499770 0.810780 -8.722905 16.886343 0.218486 -29.257376 26.048025 -7.118702 6.015904 2.471736 -0.777079 -4.041380 3.076685 0.306360 0.282850 0.081050 0.560420 7.816496 -7.369821 3.553054 14.126785 -14.545302 -3.236730 0.398255 10.650801 -1.225114 2.372899 -1.815449 0.032380 0.004880 -0.519760 0.005060 
-4.198480 16.030980 -1.074330 -175.788435 -71.275552 173.376968 -15.743583 12.026570 3.591896 21.602807 2.223676 -36.620153 0.593935 9.657480 31.511721 -0.137781 6.575132 2.173730 0.993020 0.686850 0.721480 18.015874 -11.095737 1.832668 -25.888569 6.853200 -26.069893 -7.924996 -4.340550 46.045012 -0.740834 -6.822926 1.902109 0.420740 0.372750 0.475410 -5.899840 0.637144 -7.487765 13.097217 3.065238 10.689274 -13.295872 5.388985 5.286795 -0.935127 -11.384120 -6.309706 -25.643796 31.074585 33.216102 4.217950 19.831840 0.715210 -8.935775 16.455421 0.401917 -28.506826 25.329420 -6.801450 6.978136 2.497521 -0.641495 -4.025479 3.058646 0.322770 0.275130 0.079660 0.546510 8.225643 -7.366605 3.145021 16.309110 -14.561768 -4.391038 0.030814 14.395573 -1.207018 2.342920 -1.849634 -0.006350 0.012340 -0.545700 -0.026060 
-4.093830 16.044080 -1.127280 -175.694988 -70.272071 173.263695 -15.737232 12.059673 3.766892 23.395931 2.451603 -35.716781 -1.567111 10.107335 29.440390 -0.167519 6.586377 2.150056 0.976850 0.641180 0.799920 18.016903 -10.983391 1.810759 -24.317089 6.580956 -26.076643 -8.085452 -4.055097 45.437099 -0.723357 -6.639233 1.959408 0.391020 0.293510 0.463500 -5.562551 0.284752 -7.616375 11.511754 2.934904 12.289259 -12.517546 4.974152 5.104191 -0.660389 -10.678331 -5.813227 -24.074430 29.424702 35.298723 1.298250 20.658130 -0.454510 -10.687563 15.979815 -0.027460 -25.652152 22.481625 -5.573366 11.029779 0.889958 -0.367454 -4.004062 3.082020 0.368850 0.254550 0.111110 0.495960 9.343237 -7.837877 2.358720 20.897455 -14.991426 -6.907825 -2.894651 20.788360 -1.413381 2.285575 -1.887972 -0.025440 -0.014000 -0.558020 -0.088380 
-3.960240 16.092860 -1.224350 -173.998136 -69.715094 172.132444 -15.744413 12.119564 3.885642 25.396583 2.561116 -34.150951 -3.432879 9.660293 24.726295 -0.231383 6.211927 2.279949 0.987200 0.644680 0.845790 18.015907 -10.756470 1.865539 -21.593136 6.638504 -26.640930 -7.927180 -3.842349 45.908069 -0.752073 -6.574142 2.002770 0.388400 0.252440 0.440560 -5.160059 -0.222018 -7.700790 9.551081 2.612228 13.119469 -10.992016 4.378308 5.627760 -0.944602 -9.964436 -5.932373 -22.838744 28.590621 36.755606 0.477390 21.043440 -1.646340 -10.309454 15.192295 0.453521 -23.548072 21.116548 -5.276047 10.374259 -3.637453 -0.753610 -3.878884 3.122402 0.420140 0.226420 0.146560 0.490720 9.785185 -7.649634 1.608157 26.522884 -13.763818 -9.208600 -2.657993 23.668462 -1.560167 2.253248 -1.838047 -0.045490 0.003570 -0.583790 -0.116160 
-3.799520 16.166040 -1.333350 -171.145057 -70.596020 169.275973 -15.740658 12.347945 4.008449 26.602155 1.990815 -32.403073 -3.967482 8.283992 19.089094 -0.260564 5.583082 2.534620 0.958760 0.584650 0.890180 17.963752 -10.604864 1.921552 -19.027637 6.364741 -26.231406 -7.137033 -4.146339 46.426631 -0.771768 -6.567643 2.022738 0.339200 0.226310 0.416210 -4.727932 -0.892932 -7.825107 7.721295 1.792985 15.492174 -9.325417 3.210968 4.923689 -1.211265 -9.209749 -6.025145 -21.909189 27.209752 38.153773 -0.316260 20.954970 -1.650840 -11.703823 13.630825 0.446328 -18.940021 18.481418 -3.970604 11.469249 -6.356411 -0.853836 -3.779951 3.166574 0.448580 0.199810 0.161840 0.471750 12.022986 -6.966503 0.932367 30.373889 -12.369111 -10.409527 -2.396416 23.960147 -1.654019 2.298625 -1.765119 -0.063160 0.008350 -0.600930 -0.138160 
-3.617690 16.232890 -1.472200 -166.440483 -71.688120 166.406628 -15.726940 12.095590 4.458070 29.102831 1.202748 -32.038588 -5.984011 7.168203 12.146555 -0.282875 5.432808 2.609173 0.825390 0.412100 0.777760 18.055644 -10.096895 1.955095 -16.019888 6.298382 -27.600461 -6.664876 -4.497376 47.272337 -0.746659 -6.657082 1.998386 0.259110 0.315650 0.422240 -4.230945 -1.648675 -8.015358 6.285701 0.688246 15.499249 -7.686501 1.851335 5.410243 -1.741402 -8.675752 -6.823185 -21.678170 26.854527 37.844882 0.859610 20.453410 0.511490 -11.131195 11.183543 0.916358 -15.667582 14.987648 -2.840787 13.480854 -8.263434 -1.077172 -3.824298 3.221283 0.443520 0.245860 0.075670 0.426110 13.045268 -5.281928 1.078909 35.303363 -11.605610 -11.718712 -1.043031 23.632733 -1.669606 2.278533 -1.694256 -0.114710 0.013030 -0.480160 -0.147580 
